<?xml version="1.0" encoding="utf-8"?>
<!-- Generator: Adobe Illustrator 19.2.0, SVG Export Plug-In . SVG Version: 6.00 Build 0)  -->
<svg version="1.1" id="Layer_1" xmlns="http://www.w3.org/2000/svg" xmlns:xlink="http://www.w3.org/1999/xlink" x="0px" y="0px"
	 viewBox="0 0 136.4 59.7" style="enable-background:new 0 0 136.4 59.7;" xml:space="preserve">
<style type="text/css">
	.st0{enable-background:new    ;}
</style>
<g class="st0">
	<path d="M43.6,4.8c0.2,0,0.4,0.1,0.6,0.3c0.2,0.2,0.3,0.4,0.3,0.6v20.7c0,0.2-0.1,0.4-0.3,0.6c-0.2,0.2-0.4,0.3-0.6,0.3h-6.3
		c-0.2,0-0.4-0.1-0.6-0.3c-0.2-0.2-0.3-0.4-0.3-0.6v-6.9h-5.2v6.9c0,0.2-0.1,0.4-0.3,0.6c-0.2,0.2-0.4,0.3-0.6,0.3h-6.3
		c-0.2,0-0.4-0.1-0.6-0.2c-0.2-0.2-0.3-0.4-0.3-0.6V5.7c0-0.2,0.1-0.4,0.3-0.6c0.2-0.2,0.4-0.3,0.6-0.3h6.3c0.2,0,0.4,0.1,0.6,0.3
		c0.2,0.2,0.3,0.4,0.3,0.6v6.7h5.2V5.7c0-0.2,0.1-0.4,0.3-0.6c0.2-0.2,0.4-0.3,0.6-0.3H43.6z"/>
	<path d="M66.4,4.8c0.2,0,0.4,0.1,0.6,0.3c0.2,0.2,0.3,0.4,0.3,0.6v5.2c0,0.2-0.1,0.4-0.3,0.6c-0.2,0.2-0.4,0.3-0.6,0.3h-5.3v14.7
		c0,0.2-0.1,0.4-0.3,0.6s-0.4,0.3-0.6,0.3h-6.4c-0.2,0-0.4-0.1-0.6-0.3c-0.2-0.2-0.3-0.4-0.3-0.6V11.7h-5.3c-0.2,0-0.4-0.1-0.6-0.3
		c-0.2-0.2-0.3-0.4-0.3-0.6V5.7c0-0.2,0.1-0.4,0.3-0.6s0.4-0.3,0.6-0.3H66.4z"/>
	<path d="M81.5,13.3l4.6-7.7c0.1-0.1,0.2-0.3,0.4-0.5s0.5-0.4,1-0.4h5.1c0.2,0,0.4,0.1,0.6,0.3s0.3,0.4,0.3,0.6v20.7
		c0,0.2-0.1,0.4-0.3,0.6s-0.4,0.3-0.6,0.3h-5.8c-0.2,0-0.4-0.1-0.6-0.3s-0.3-0.4-0.3-0.6v-8.8L83.8,21c-0.1,0.2-0.3,0.3-0.4,0.5
		c-0.2,0.2-0.4,0.3-0.8,0.3h-2.2c-0.3,0-0.6-0.1-0.8-0.3c-0.2-0.2-0.3-0.4-0.4-0.5l-2.1-3.5v8.8c0,0.2-0.1,0.4-0.3,0.6
		c-0.2,0.2-0.4,0.3-0.6,0.3h-5.8c-0.2,0-0.4-0.1-0.6-0.3c-0.2-0.2-0.3-0.4-0.3-0.6V5.7c0-0.2,0.1-0.4,0.3-0.6
		c0.2-0.2,0.4-0.3,0.6-0.3h5.1c0.4,0,0.7,0.1,1,0.4c0.2,0.2,0.4,0.4,0.4,0.5L81.5,13.3z"/>
	<path d="M113.9,20.6c0.2,0,0.4,0.1,0.6,0.3c0.2,0.2,0.3,0.4,0.3,0.6v4.8c0,0.2-0.1,0.4-0.3,0.6c-0.2,0.2-0.4,0.3-0.6,0.3H97.8
		c-0.2,0-0.4-0.1-0.6-0.3c-0.2-0.2-0.3-0.4-0.3-0.6V5.7c0-0.2,0.1-0.4,0.3-0.6c0.2-0.2,0.4-0.3,0.6-0.3h6.4c0.2,0,0.4,0.1,0.6,0.3
		s0.3,0.4,0.3,0.6v15H113.9z"/>
</g>
<g class="st0">
	<path d="M30,37.8c-0.1,1.8-0.1,3.6,0,5.4c0,1,0.3,1.7,0.7,2c0.4,0.4,1,0.6,1.7,0.6c0.6,0,1-0.1,1.5-0.4s0.7-0.7,0.9-1.3
		c0.1-0.4,0.2-0.6,0.4-0.7c0.2-0.1,0.4-0.2,0.8-0.2h6.5c0.2,0,0.4,0.1,0.5,0.2c0.1,0.1,0.2,0.3,0.2,0.5c0,1.5-0.3,2.7-1,3.7
		c-0.6,1-1.4,1.9-2.4,2.5c-1,0.7-2.1,1.1-3.4,1.5c-1.3,0.3-2.6,0.5-4,0.5c-1.5,0-2.9-0.2-4.2-0.5c-1.3-0.3-2.4-0.8-3.3-1.6
		c-0.9-0.7-1.7-1.6-2.2-2.7c-0.5-1.1-0.8-2.4-0.9-3.9c0-0.9-0.1-1.8-0.1-2.8c0-1,0-2,0.1-2.9c0.1-1.5,0.4-2.8,0.9-3.9
		c0.6-1.1,1.3-2,2.3-2.7c0.9-0.7,2.1-1.2,3.3-1.6c1.3-0.3,2.7-0.5,4.2-0.5c1.4,0,2.7,0.2,4,0.5c1.3,0.3,2.4,0.8,3.4,1.5
		c1,0.7,1.8,1.5,2.4,2.5c0.6,1,0.9,2.3,1,3.7c0,0.2-0.1,0.4-0.2,0.5c-0.1,0.1-0.3,0.2-0.5,0.2H36c-0.4,0-0.6-0.1-0.8-0.2
		c-0.1-0.1-0.3-0.4-0.4-0.7c-0.2-0.7-0.6-1.1-1-1.4c-0.4-0.2-0.9-0.4-1.4-0.4c-0.7,0-1.3,0.2-1.7,0.6S30,36.8,30,37.8z"/>
	<path d="M66.5,37.7c0,0.9,0.1,1.9,0.1,2.8c0,1,0,1.9-0.1,2.8c-0.1,1.4-0.4,2.7-0.9,3.8c-0.5,1.1-1.3,2-2.2,2.7
		c-0.9,0.7-2,1.3-3.3,1.6c-1.3,0.4-2.7,0.5-4.3,0.5c-1.6,0-3-0.2-4.3-0.5c-1.3-0.4-2.4-0.9-3.3-1.6c-0.9-0.7-1.7-1.6-2.2-2.7
		c-0.5-1.1-0.8-2.3-0.9-3.8c0-0.9-0.1-1.8-0.1-2.8c0-1,0-1.9,0.1-2.8c0.1-1.4,0.4-2.7,0.9-3.7c0.5-1.1,1.3-2,2.2-2.8
		c0.9-0.7,2-1.3,3.3-1.7c1.3-0.4,2.7-0.6,4.3-0.6c1.6,0,3,0.2,4.3,0.6c1.3,0.4,2.4,0.9,3.3,1.7c0.9,0.7,1.7,1.7,2.2,2.8
		C66.2,35.1,66.5,36.3,66.5,37.7z M53.5,43.2c0,0.9,0.3,1.6,0.7,2s1,0.6,1.7,0.6s1.3-0.2,1.7-0.6c0.4-0.4,0.6-1.1,0.7-2
		c0.1-1.8,0.1-3.6,0-5.4c0-0.9-0.3-1.6-0.7-2c-0.4-0.4-1-0.6-1.7-0.6c-0.7,0-1.2,0.2-1.7,0.6c-0.4,0.4-0.7,1.1-0.7,2
		C53.4,39.6,53.4,41.4,53.5,43.2z"/>
	<path d="M79.5,29.3c1.5,0,2.9,0.2,4.2,0.6s2.4,0.9,3.3,1.7c0.9,0.7,1.7,1.7,2.3,2.8c0.6,1.1,0.9,2.4,0.9,3.8c0,0.4,0,0.9,0,1.3
		s0,0.8,0,1.2s0,0.8,0,1.1c0,0.4,0,0.8,0,1.2c-0.1,1.5-0.4,2.8-0.9,3.9c-0.5,1.1-1.3,2-2.2,2.8c-0.9,0.7-2,1.3-3.3,1.6
		c-1.3,0.4-2.7,0.5-4.2,0.5h-9.4c-0.2,0-0.4-0.1-0.6-0.3c-0.2-0.2-0.3-0.4-0.3-0.6V30.2c0-0.2,0.1-0.4,0.3-0.6
		c0.2-0.2,0.4-0.3,0.6-0.3H79.5z M82.1,38.1c0-0.9-0.3-1.5-0.8-2c-0.5-0.4-1.1-0.6-1.9-0.6h-1.9v9.9h2.1c0.7,0,1.3-0.2,1.8-0.6
		s0.7-1.1,0.8-2c0-0.4,0-0.9,0-1.3s0-0.8,0-1.2c0-0.4,0-0.7,0-1.1S82.1,38.5,82.1,38.1z"/>
	<path d="M113.7,50.6c0.1,0.1,0.1,0.2,0.1,0.4c0,0.2-0.1,0.4-0.2,0.5s-0.3,0.2-0.5,0.2h-6.6c-0.4,0-0.7-0.1-1-0.3
		c-0.2-0.2-0.4-0.4-0.4-0.5l-2.8-6.1h-1.3v6.1c0,0.2-0.1,0.4-0.3,0.6c-0.2,0.2-0.4,0.3-0.6,0.3H94c-0.2,0-0.4-0.1-0.6-0.3
		c-0.2-0.2-0.3-0.4-0.3-0.6V30.2c0-0.2,0.1-0.4,0.3-0.6c0.2-0.2,0.4-0.3,0.6-0.3h9.5c1.5,0,2.9,0.2,4.1,0.5c1.2,0.4,2.2,0.9,3.1,1.5
		c0.8,0.7,1.5,1.5,1.9,2.4c0.4,1,0.7,2,0.7,3.3c0,1.5-0.3,2.7-1,3.7c-0.6,1-1.5,1.9-2.5,2.5L113.7,50.6z M101.1,38.6h2.3
		c0.5,0,0.9-0.2,1.1-0.5c0.2-0.3,0.4-0.7,0.4-1.1c0-0.4-0.1-0.8-0.3-1.2c-0.2-0.4-0.6-0.6-1.1-0.6h-2.3V38.6z"/>
</g>
<g class="st0">
	<path d="M135.5,29.2c0,0.4-0.1,0.7-0.3,0.9c-0.2,0.2-0.5,0.4-0.8,0.7l-15.2,10.3c-0.1,0.1-0.2,0.1-0.2,0.1c-0.1,0-0.1,0-0.2,0
		c-0.2,0-0.4-0.1-0.6-0.2s-0.2-0.3-0.2-0.6v-6.2c0-0.5,0.1-0.9,0.4-1.1s0.6-0.4,0.8-0.5l6.6-4.2l-6.6-4.1c-0.2-0.1-0.5-0.3-0.8-0.6
		c-0.3-0.2-0.4-0.6-0.4-1.1v-6.2c0-0.2,0.1-0.4,0.2-0.6c0.2-0.2,0.3-0.2,0.6-0.2c0,0,0.1,0,0.2,0c0.1,0,0.1,0,0.2,0.1L134.4,26
		c0.4,0.2,0.6,0.5,0.8,0.7c0.2,0.2,0.3,0.5,0.3,0.9V29.2z"/>
</g>
<g class="st0">
	<path d="M0.9,27.6c0-0.4,0.1-0.7,0.3-0.9C1.4,26.5,1.7,26.2,2,26l15.2-10.3c0.1-0.1,0.2-0.1,0.2-0.1c0.1,0,0.1,0,0.2,0
		c0.2,0,0.4,0.1,0.6,0.2c0.2,0.2,0.2,0.3,0.2,0.6v6.2c0,0.5-0.1,0.9-0.4,1.1c-0.3,0.2-0.6,0.4-0.8,0.6l-6.6,4.1l6.6,4.2
		c0.2,0.1,0.5,0.3,0.8,0.5c0.3,0.2,0.4,0.6,0.4,1.1v6.2c0,0.2-0.1,0.4-0.2,0.6c-0.2,0.2-0.3,0.2-0.6,0.2c-0.1,0-0.1,0-0.2,0
		c-0.1,0-0.1,0-0.2-0.1L2,30.8c-0.4-0.2-0.6-0.4-0.8-0.7c-0.2-0.2-0.3-0.5-0.3-0.9V27.6z"/>
</g>
</svg>
